<svg id="visual" viewBox="0 0 4000 2250" width="4000" height="2250" xmlns="http://www.w3.org/2000/svg" xmlns:xlink="http://www.w3.org/1999/xlink" version="1.1"><g stroke-width="1" stroke-linejoin="bevel"><path d="M2017 1158L1718.3 1128L1974 1364.3Z" fill="#0d0c0c" stroke="#0d0c0c"></path><path d="M1718.3 1128L1701.3 1448.3L1974 1364.3Z" fill="#0b0a0a" stroke="#0b0a0a"></path><path d="M1718.3 1128L1474.6 1171L1701.3 1448.3Z" fill="#131212" stroke="#131212"></path><path d="M2005 798.8L1685.3 832.8L1718.3 1128Z" fill="#171717" stroke="#171717"></path><path d="M1718.3 1128L1685.3 832.8L1474.6 1171Z" fill="#161616" stroke="#161616"></path><path d="M2026 1674.5L2253.7 1423.3L1974 1364.3Z" fill="#0b0a0a" stroke="#0b0a0a"></path><path d="M1974 1364.3L2253.7 1423.3L2017 1158Z" fill="#151515" stroke="#151515"></path><path d="M2297.7 849.8L2005 798.8L2017 1158Z" fill="#171717" stroke="#171717"></path><path d="M2017 1158L2005 798.8L1718.3 1128Z" fill="#151515" stroke="#151515"></path><path d="M1474.6 1171L1456.6 1455.3L1701.3 1448.3Z" fill="#131212" stroke="#131212"></path><path d="M1755.3 1699.5L2026 1674.5L1701.3 1448.3Z" fill="#131212" stroke="#131212"></path><path d="M1701.3 1448.3L2026 1674.5L1974 1364.3Z" fill="#0d0c0c" stroke="#0d0c0c"></path><path d="M2253.7 1423.3L2315.7 1106L2017 1158Z" fill="#171717" stroke="#171717"></path><path d="M1456.6 1455.3L1755.3 1699.5L1701.3 1448.3Z" fill="#0d0c0c" stroke="#0d0c0c"></path><path d="M2315.7 1106L2297.7 849.8L2017 1158Z" fill="#161616" stroke="#161616"></path><path d="M1190.9 1370.3L1378.6 1644.5L1456.6 1455.3Z" fill="#161616" stroke="#161616"></path><path d="M1456.6 1455.3L1378.6 1644.5L1755.3 1699.5Z" fill="#0b0a0a" stroke="#0b0a0a"></path><path d="M1988 1995.8L2298.7 1690.5L2026 1674.5Z" fill="#171717" stroke="#171717"></path><path d="M2026 1674.5L2298.7 1690.5L2253.7 1423.3Z" fill="#0d0c0c" stroke="#0d0c0c"></path><path d="M2253.7 1423.3L2531.4 1441.3L2315.7 1106Z" fill="#151515" stroke="#151515"></path><path d="M1694.3 613.5L1379.6 808.8L1685.3 832.8Z" fill="#0f0e0e" stroke="#0f0e0e"></path><path d="M1685.3 832.8L1379.6 808.8L1474.6 1171Z" fill="#111010" stroke="#111010"></path><path d="M1474.6 1171L1190.9 1370.3L1456.6 1455.3Z" fill="#161616" stroke="#161616"></path><path d="M1989 545.5L1694.3 613.5L2005 798.8Z" fill="#0d0c0c" stroke="#0d0c0c"></path><path d="M2005 798.8L1694.3 613.5L1685.3 832.8Z" fill="#141414" stroke="#141414"></path><path d="M1115.9 1078L1190.9 1370.3L1474.6 1171Z" fill="#0f0e0e" stroke="#0f0e0e"></path><path d="M2260.7 613.5L1989 545.5L2005 798.8Z" fill="#151515" stroke="#151515"></path><path d="M2298.7 1690.5L2531.4 1441.3L2253.7 1423.3Z" fill="#0e0d0d" stroke="#0e0d0d"></path><path d="M2315.7 1106L2580.4 809.8L2297.7 849.8Z" fill="#151515" stroke="#151515"></path><path d="M2544.4 587.5L2260.7 613.5L2297.7 849.8Z" fill="#171717" stroke="#171717"></path><path d="M2297.7 849.8L2260.7 613.5L2005 798.8Z" fill="#171717" stroke="#171717"></path><path d="M1379.6 808.8L1115.9 1078L1474.6 1171Z" fill="#171717" stroke="#171717"></path><path d="M2531.4 1441.3L2608.4 1101L2315.7 1106Z" fill="#0e0d0d" stroke="#0e0d0d"></path><path d="M1743.3 2012.8L1988 1995.8L1755.3 1699.5Z" fill="#131212" stroke="#131212"></path><path d="M1755.3 1699.5L1988 1995.8L2026 1674.5Z" fill="#141414" stroke="#141414"></path><path d="M1396.6 1967.8L1743.3 2012.8L1755.3 1699.5Z" fill="#141414" stroke="#141414"></path><path d="M1694.3 613.5L1453.6 528.5L1379.6 808.8Z" fill="#141414" stroke="#141414"></path><path d="M1379.6 808.8L1128.9 822.8L1115.9 1078Z" fill="#151515" stroke="#151515"></path><path d="M1759.3 280.3L1453.6 528.5L1694.3 613.5Z" fill="#141414" stroke="#141414"></path><path d="M2608.4 1101L2580.4 809.8L2315.7 1106Z" fill="#131212" stroke="#131212"></path><path d="M1152.9 573.5L1128.9 822.8L1379.6 808.8Z" fill="#0d0c0c" stroke="#0d0c0c"></path><path d="M2336.7 1975.8L2559.4 1705.5L2298.7 1690.5Z" fill="#0f0e0e" stroke="#0f0e0e"></path><path d="M2298.7 1690.5L2559.4 1705.5L2531.4 1441.3Z" fill="#0f0e0e" stroke="#0f0e0e"></path><path d="M2531.4 1441.3L2822.1 1142L2608.4 1101Z" fill="#0e0d0d" stroke="#0e0d0d"></path><path d="M1190.9 1370.3L1165.9 1722.5L1378.6 1644.5Z" fill="#151515" stroke="#151515"></path><path d="M1378.6 1644.5L1396.6 1967.8L1755.3 1699.5Z" fill="#0e0d0d" stroke="#0e0d0d"></path><path d="M883.1 1393.3L1165.9 1722.5L1190.9 1370.3Z" fill="#141414" stroke="#141414"></path><path d="M1165.9 1722.5L1396.6 1967.8L1378.6 1644.5Z" fill="#0f0e0e" stroke="#0f0e0e"></path><path d="M1988 1995.8L2336.7 1975.8L2298.7 1690.5Z" fill="#111010" stroke="#111010"></path><path d="M2275.7 2250L2336.7 1975.8L1988 1995.8Z" fill="#111010" stroke="#111010"></path><path d="M2580.4 809.8L2544.4 587.5L2297.7 849.8Z" fill="#161616" stroke="#161616"></path><path d="M2032 238.3L1759.3 280.3L1989 545.5Z" fill="#141414" stroke="#141414"></path><path d="M2032 238.3L1989 545.5L2286.7 300.3Z" fill="#131212" stroke="#131212"></path><path d="M1989 545.5L1759.3 280.3L1694.3 613.5Z" fill="#141414" stroke="#141414"></path><path d="M1184.9 285.3L1152.9 573.5L1453.6 528.5Z" fill="#0b0a0a" stroke="#0b0a0a"></path><path d="M1453.6 528.5L1152.9 573.5L1379.6 808.8Z" fill="#0e0d0d" stroke="#0e0d0d"></path><path d="M2898.1 1454.3L2822.1 1142L2531.4 1441.3Z" fill="#171717" stroke="#171717"></path><path d="M2608.4 1101L2886.1 878.8L2580.4 809.8Z" fill="#0f0e0e" stroke="#0f0e0e"></path><path d="M2580.4 809.8L2834.1 611.5L2544.4 587.5Z" fill="#111010" stroke="#111010"></path><path d="M871.1 1731.5L1156.9 1922.8L1165.9 1722.5Z" fill="#171717" stroke="#171717"></path><path d="M1165.9 1722.5L1156.9 1922.8L1396.6 1967.8Z" fill="#171717" stroke="#171717"></path><path d="M863.1 1112L883.1 1393.3L1115.9 1078Z" fill="#0f0e0e" stroke="#0f0e0e"></path><path d="M1115.9 1078L883.1 1393.3L1190.9 1370.3Z" fill="#131212" stroke="#131212"></path><path d="M863.1 1112L1115.9 1078L856.1 816.8Z" fill="#141414" stroke="#141414"></path><path d="M2336.7 1975.8L2552.4 1950.8L2559.4 1705.5Z" fill="#161616" stroke="#161616"></path><path d="M2828.1 1710.5L2898.1 1454.3L2531.4 1441.3Z" fill="#0b0a0a" stroke="#0b0a0a"></path><path d="M856.1 816.8L1115.9 1078L1128.9 822.8Z" fill="#151515" stroke="#151515"></path><path d="M2286.7 300.3L1989 545.5L2260.7 613.5Z" fill="#171717" stroke="#171717"></path><path d="M1702.3 2250L1979 2250L1743.3 2012.8Z" fill="#151515" stroke="#151515"></path><path d="M1743.3 2012.8L1979 2250L1988 1995.8Z" fill="#111010" stroke="#111010"></path><path d="M2336.7 1975.8L2522.4 2250L2552.4 1950.8Z" fill="#171717" stroke="#171717"></path><path d="M1702.3 2250L1743.3 2012.8L1396.6 1967.8Z" fill="#161616" stroke="#161616"></path><path d="M2544.4 587.5L2286.7 300.3L2260.7 613.5Z" fill="#0f0e0e" stroke="#0f0e0e"></path><path d="M1395.6 2250L1702.3 2250L1396.6 1967.8Z" fill="#121111" stroke="#121111"></path><path d="M1678.3 0L1452.6 255.3L1759.3 280.3Z" fill="#161616" stroke="#161616"></path><path d="M1759.3 280.3L1452.6 255.3L1453.6 528.5Z" fill="#0b0a0a" stroke="#0b0a0a"></path><path d="M2828.1 1710.5L2531.4 1441.3L2559.4 1705.5Z" fill="#111010" stroke="#111010"></path><path d="M2552.4 1950.8L2828.1 1710.5L2559.4 1705.5Z" fill="#0e0d0d" stroke="#0e0d0d"></path><path d="M1152.9 573.5L856.1 816.8L1128.9 822.8Z" fill="#0f0e0e" stroke="#0f0e0e"></path><path d="M807.1 595.5L856.1 816.8L1152.9 573.5Z" fill="#171717" stroke="#171717"></path><path d="M3098.9 1079L2886.1 878.8L2822.1 1142Z" fill="#161616" stroke="#161616"></path><path d="M2822.1 1142L2886.1 878.8L2608.4 1101Z" fill="#171717" stroke="#171717"></path><path d="M2544.4 587.5L2555.4 262.3L2286.7 300.3Z" fill="#141414" stroke="#141414"></path><path d="M1979 2250L2275.7 2250L1988 1995.8Z" fill="#111010" stroke="#111010"></path><path d="M2552.4 1950.8L2879.1 1962.8L2828.1 1710.5Z" fill="#161616" stroke="#161616"></path><path d="M883.1 1393.3L871.1 1731.5L1165.9 1722.5Z" fill="#121111" stroke="#121111"></path><path d="M568.4 1438.3L871.1 1731.5L883.1 1393.3Z" fill="#0b0a0a" stroke="#0b0a0a"></path><path d="M845.1 2018.8L871.1 1731.5L600.4 2019.8Z" fill="#0b0a0a" stroke="#0b0a0a"></path><path d="M1156.9 2250L1395.6 2250L1396.6 1967.8Z" fill="#131212" stroke="#131212"></path><path d="M1156.9 2250L1396.6 1967.8L1156.9 1922.8Z" fill="#111010" stroke="#111010"></path><path d="M2886.1 878.8L2834.1 611.5L2580.4 809.8Z" fill="#141414" stroke="#141414"></path><path d="M1452.6 255.3L1184.9 285.3L1453.6 528.5Z" fill="#171717" stroke="#171717"></path><path d="M2872.1 286.3L2555.4 262.3L2544.4 587.5Z" fill="#0d0c0c" stroke="#0d0c0c"></path><path d="M2300.7 0L2043 0L2032 238.3Z" fill="#0d0c0c" stroke="#0d0c0c"></path><path d="M2275.7 2250L2522.4 2250L2336.7 1975.8Z" fill="#151515" stroke="#151515"></path><path d="M864.1 276.3L807.1 595.5L1152.9 573.5Z" fill="#131212" stroke="#131212"></path><path d="M540.4 1091L568.4 1438.3L863.1 1112Z" fill="#171717" stroke="#171717"></path><path d="M845.1 2018.8L1156.9 2250L1156.9 1922.8Z" fill="#131212" stroke="#131212"></path><path d="M2043 0L1678.3 0L1759.3 280.3Z" fill="#0f0e0e" stroke="#0f0e0e"></path><path d="M1452.6 255.3L1149.9 0L1184.9 285.3Z" fill="#0f0e0e" stroke="#0f0e0e"></path><path d="M2043 0L1759.3 280.3L2032 238.3Z" fill="#141414" stroke="#141414"></path><path d="M2300.7 0L2032 238.3L2286.7 300.3Z" fill="#141414" stroke="#141414"></path><path d="M2898.1 1454.3L3098.9 1079L2822.1 1142Z" fill="#141414" stroke="#141414"></path><path d="M2886.1 878.8L3090.9 814.8L2834.1 611.5Z" fill="#171717" stroke="#171717"></path><path d="M3191.9 1410.3L3098.9 1079L2898.1 1454.3Z" fill="#0b0a0a" stroke="#0b0a0a"></path><path d="M2848.1 2250L2879.1 1962.8L2552.4 1950.8Z" fill="#151515" stroke="#151515"></path><path d="M3154.9 1660.5L3191.9 1410.3L2898.1 1454.3Z" fill="#0b0a0a" stroke="#0b0a0a"></path><path d="M568.4 1438.3L883.1 1393.3L863.1 1112Z" fill="#121111" stroke="#121111"></path><path d="M871.1 1731.5L845.1 2018.8L1156.9 1922.8Z" fill="#171717" stroke="#171717"></path><path d="M1678.3 0L1460.6 0L1452.6 255.3Z" fill="#151515" stroke="#151515"></path><path d="M1184.9 285.3L864.1 276.3L1152.9 573.5Z" fill="#0b0a0a" stroke="#0b0a0a"></path><path d="M3098.9 1079L3090.9 814.8L2886.1 878.8Z" fill="#151515" stroke="#151515"></path><path d="M2834.1 611.5L2872.1 286.3L2544.4 587.5Z" fill="#151515" stroke="#151515"></path><path d="M540.4 1091L863.1 1112L585.4 828.8Z" fill="#151515" stroke="#151515"></path><path d="M2555.4 262.3L2300.7 0L2286.7 300.3Z" fill="#0e0d0d" stroke="#0e0d0d"></path><path d="M585.4 828.8L863.1 1112L856.1 816.8Z" fill="#141414" stroke="#141414"></path><path d="M807.1 595.5L585.4 828.8L856.1 816.8Z" fill="#161616" stroke="#161616"></path><path d="M3154.9 1660.5L2898.1 1454.3L2828.1 1710.5Z" fill="#121111" stroke="#121111"></path><path d="M3474.6 588.5L3155.9 547.5L3090.9 814.8Z" fill="#151515" stroke="#151515"></path><path d="M3100.9 1917.8L3154.9 1660.5L2828.1 1710.5Z" fill="#161616" stroke="#161616"></path><path d="M1149.9 0L864.1 276.3L1184.9 285.3Z" fill="#111010" stroke="#111010"></path><path d="M807.1 595.5L590.4 569.5L585.4 828.8Z" fill="#161616" stroke="#161616"></path><path d="M3155.9 547.5L2872.1 286.3L2834.1 611.5Z" fill="#161616" stroke="#161616"></path><path d="M2555.4 262.3L2571.4 0L2300.7 0Z" fill="#0d0c0c" stroke="#0d0c0c"></path><path d="M237.7 1728.5L545.4 1736.5L568.4 1438.3Z" fill="#0f0e0e" stroke="#0f0e0e"></path><path d="M568.4 1438.3L545.4 1736.5L871.1 1731.5Z" fill="#111010" stroke="#111010"></path><path d="M3118.9 2250L3100.9 1917.8L2879.1 1962.8Z" fill="#131212" stroke="#131212"></path><path d="M2879.1 1962.8L3100.9 1917.8L2828.1 1710.5Z" fill="#141414" stroke="#141414"></path><path d="M2522.4 2250L2848.1 2250L2552.4 1950.8Z" fill="#131212" stroke="#131212"></path><path d="M1460.6 0L1149.9 0L1452.6 255.3Z" fill="#141414" stroke="#141414"></path><path d="M2874.1 0L2571.4 0L2555.4 262.3Z" fill="#0e0d0d" stroke="#0e0d0d"></path><path d="M600.4 2019.8L858.1 2250L845.1 2018.8Z" fill="#0e0d0d" stroke="#0e0d0d"></path><path d="M845.1 2018.8L858.1 2250L1156.9 2250Z" fill="#0b0a0a" stroke="#0b0a0a"></path><path d="M864.1 276.3L590.4 569.5L807.1 595.5Z" fill="#0f0e0e" stroke="#0f0e0e"></path><path d="M240.7 859.8L270.7 1091L540.4 1091Z" fill="#141414" stroke="#141414"></path><path d="M3090.9 814.8L3155.9 547.5L2834.1 611.5Z" fill="#0f0e0e" stroke="#0f0e0e"></path><path d="M2872.1 286.3L2874.1 0L2555.4 262.3Z" fill="#0e0d0d" stroke="#0e0d0d"></path><path d="M3417.6 1077L3090.9 814.8L3098.9 1079Z" fill="#171717" stroke="#171717"></path><path d="M545.4 1736.5L600.4 2019.8L871.1 1731.5Z" fill="#121111" stroke="#121111"></path><path d="M3154.9 1660.5L3381.6 1418.3L3191.9 1410.3Z" fill="#151515" stroke="#151515"></path><path d="M3191.9 1410.3L3417.6 1077L3098.9 1079Z" fill="#0f0e0e" stroke="#0f0e0e"></path><path d="M3437.6 1705.5L3381.6 1418.3L3154.9 1660.5Z" fill="#171717" stroke="#171717"></path><path d="M3381.6 1418.3L3417.6 1077L3191.9 1410.3Z" fill="#161616" stroke="#161616"></path><path d="M3424.6 308.3L3116.9 276.3L3155.9 547.5Z" fill="#161616" stroke="#161616"></path><path d="M3155.9 547.5L3116.9 276.3L2872.1 286.3Z" fill="#0b0a0a" stroke="#0b0a0a"></path><path d="M240.7 859.8L540.4 1091L585.4 828.8Z" fill="#0f0e0e" stroke="#0f0e0e"></path><path d="M540.4 1091L254.7 1366.3L568.4 1438.3Z" fill="#121111" stroke="#121111"></path><path d="M545.4 1736.5L311.7 1976.8L600.4 2019.8Z" fill="#0d0c0c" stroke="#0d0c0c"></path><path d="M3116.9 276.3L2874.1 0L2872.1 286.3Z" fill="#0b0a0a" stroke="#0b0a0a"></path><path d="M270.7 1091L254.7 1366.3L540.4 1091Z" fill="#0f0e0e" stroke="#0f0e0e"></path><path d="M864.1 276.3L524.4 332.3L590.4 569.5Z" fill="#111010" stroke="#111010"></path><path d="M248.7 583.5L240.7 859.8L585.4 828.8Z" fill="#171717" stroke="#171717"></path><path d="M535.4 0L524.4 332.3L864.1 276.3Z" fill="#151515" stroke="#151515"></path><path d="M1149.9 0L813.1 0L864.1 276.3Z" fill="#0b0a0a" stroke="#0b0a0a"></path><path d="M2848.1 2250L3118.9 2250L2879.1 1962.8Z" fill="#131212" stroke="#131212"></path><path d="M3100.9 1917.8L3437.6 1705.5L3154.9 1660.5Z" fill="#0d0c0c" stroke="#0d0c0c"></path><path d="M303.7 2250L576.4 2250L600.4 2019.8Z" fill="#141414" stroke="#141414"></path><path d="M600.4 2019.8L576.4 2250L858.1 2250Z" fill="#121111" stroke="#121111"></path><path d="M3409.6 1996.8L3437.6 1705.5L3100.9 1917.8Z" fill="#111010" stroke="#111010"></path><path d="M3709.3 1153L3666.3 855.8L3417.6 1077Z" fill="#121111" stroke="#121111"></path><path d="M3666.3 855.8L3471.6 878.8L3417.6 1077Z" fill="#121111" stroke="#121111"></path><path d="M3417.6 1077L3471.6 878.8L3090.9 814.8Z" fill="#0b0a0a" stroke="#0b0a0a"></path><path d="M248.7 583.5L585.4 828.8L590.4 569.5Z" fill="#0b0a0a" stroke="#0b0a0a"></path><path d="M270.7 1091L0 1147L254.7 1366.3Z" fill="#111010" stroke="#111010"></path><path d="M0 1409.3L237.7 1728.5L254.7 1366.3Z" fill="#151515" stroke="#151515"></path><path d="M254.7 1366.3L237.7 1728.5L568.4 1438.3Z" fill="#131212" stroke="#131212"></path><path d="M237.7 1728.5L311.7 1976.8L545.4 1736.5Z" fill="#151515" stroke="#151515"></path><path d="M3118.9 2250L3409.6 1996.8L3100.9 1917.8Z" fill="#0e0d0d" stroke="#0e0d0d"></path><path d="M524.4 332.3L248.7 583.5L590.4 569.5Z" fill="#171717" stroke="#171717"></path><path d="M329.7 309.3L248.7 583.5L524.4 332.3Z" fill="#141414" stroke="#141414"></path><path d="M3471.6 878.8L3474.6 588.5L3090.9 814.8Z" fill="#0d0c0c" stroke="#0d0c0c"></path><path d="M3116.9 276.3L3147.9 0L2874.1 0Z" fill="#121111" stroke="#121111"></path><path d="M3389.6 0L3147.9 0L3116.9 276.3Z" fill="#0b0a0a" stroke="#0b0a0a"></path><path d="M535.4 0L329.7 309.3L524.4 332.3Z" fill="#161616" stroke="#161616"></path><path d="M813.1 0L535.4 0L864.1 276.3Z" fill="#0f0e0e" stroke="#0f0e0e"></path><path d="M3474.6 588.5L3424.6 308.3L3155.9 547.5Z" fill="#161616" stroke="#161616"></path><path d="M3471.6 878.8L3666.3 855.8L3474.6 588.5Z" fill="#171717" stroke="#171717"></path><path d="M3474.6 588.5L3704.3 534.5L3424.6 308.3Z" fill="#141414" stroke="#141414"></path><path d="M3709.3 1153L3417.6 1077L3381.6 1418.3Z" fill="#171717" stroke="#171717"></path><path d="M3709.3 1153L3381.6 1418.3L3753.3 1371.3Z" fill="#0d0c0c" stroke="#0d0c0c"></path><path d="M3679.3 1674.5L3381.6 1418.3L3437.6 1705.5Z" fill="#0d0c0c" stroke="#0d0c0c"></path><path d="M311.7 1976.8L303.7 2250L600.4 2019.8Z" fill="#161616" stroke="#161616"></path><path d="M0 1972.8L303.7 2250L311.7 1976.8Z" fill="#0e0d0d" stroke="#0e0d0d"></path><path d="M0 847.8L240.7 859.8L248.7 583.5Z" fill="#161616" stroke="#161616"></path><path d="M0 847.8L270.7 1091L240.7 859.8Z" fill="#131212" stroke="#131212"></path><path d="M0 847.8L0 1147L270.7 1091Z" fill="#111010" stroke="#111010"></path><path d="M237.7 1728.5L0 1972.8L311.7 1976.8Z" fill="#0e0d0d" stroke="#0e0d0d"></path><path d="M0 1147L0 1409.3L254.7 1366.3Z" fill="#0b0a0a" stroke="#0b0a0a"></path><path d="M3722.3 1968.8L3679.3 1674.5L3437.6 1705.5Z" fill="#0f0e0e" stroke="#0f0e0e"></path><path d="M0 531.5L0 847.8L248.7 583.5Z" fill="#0f0e0e" stroke="#0f0e0e"></path><path d="M3679.3 1674.5L3753.3 1371.3L3381.6 1418.3Z" fill="#161616" stroke="#161616"></path><path d="M4000 587.5L3704.3 534.5L3666.3 855.8Z" fill="#121111" stroke="#121111"></path><path d="M3118.9 2250L3472.6 2250L3409.6 1996.8Z" fill="#121111" stroke="#121111"></path><path d="M3409.6 1996.8L3722.3 1968.8L3437.6 1705.5Z" fill="#111010" stroke="#111010"></path><path d="M0 1409.3L0 1716.5L237.7 1728.5Z" fill="#121111" stroke="#121111"></path><path d="M3727.3 285.3L3389.6 0L3424.6 308.3Z" fill="#171717" stroke="#171717"></path><path d="M3424.6 308.3L3389.6 0L3116.9 276.3Z" fill="#171717" stroke="#171717"></path><path d="M4000 1080L3666.3 855.8L3709.3 1153Z" fill="#171717" stroke="#171717"></path><path d="M3666.3 855.8L3704.3 534.5L3474.6 588.5Z" fill="#131212" stroke="#131212"></path><path d="M329.7 309.3L0 531.5L248.7 583.5Z" fill="#0e0d0d" stroke="#0e0d0d"></path><path d="M0 274.3L0 531.5L329.7 309.3Z" fill="#151515" stroke="#151515"></path><path d="M0 1716.5L0 1972.8L237.7 1728.5Z" fill="#111010" stroke="#111010"></path><path d="M4000 1405.3L4000 1080L3753.3 1371.3Z" fill="#121111" stroke="#121111"></path><path d="M3472.6 2250L3722.3 1968.8L3409.6 1996.8Z" fill="#0b0a0a" stroke="#0b0a0a"></path><path d="M535.4 0L265.7 0L329.7 309.3Z" fill="#161616" stroke="#161616"></path><path d="M265.7 0L0 274.3L329.7 309.3Z" fill="#151515" stroke="#151515"></path><path d="M3704.3 534.5L3727.3 285.3L3424.6 308.3Z" fill="#141414" stroke="#141414"></path><path d="M4000 305.3L3727.3 285.3L3704.3 534.5Z" fill="#0b0a0a" stroke="#0b0a0a"></path><path d="M0 1972.8L0 2250L303.7 2250Z" fill="#121111" stroke="#121111"></path><path d="M3472.6 2250L3743.3 2250L3722.3 1968.8Z" fill="#121111" stroke="#121111"></path><path d="M4000 1405.3L3753.3 1371.3L4000 1655.5Z" fill="#0e0d0d" stroke="#0e0d0d"></path><path d="M3753.3 1371.3L3679.3 1674.5L4000 1655.5Z" fill="#0b0a0a" stroke="#0b0a0a"></path><path d="M3753.3 1371.3L4000 1080L3709.3 1153Z" fill="#161616" stroke="#161616"></path><path d="M4000 1655.5L3679.3 1674.5L3722.3 1968.8Z" fill="#171717" stroke="#171717"></path><path d="M4000 1080L4000 882.8L3666.3 855.8Z" fill="#141414" stroke="#141414"></path><path d="M4000 1994.8L4000 1655.5L3722.3 1968.8Z" fill="#161616" stroke="#161616"></path><path d="M265.7 0L0 0L0 274.3Z" fill="#121111" stroke="#121111"></path><path d="M4000 882.8L4000 587.5L3666.3 855.8Z" fill="#0b0a0a" stroke="#0b0a0a"></path><path d="M4000 305.3L3754.3 0L3727.3 285.3Z" fill="#0f0e0e" stroke="#0f0e0e"></path><path d="M3727.3 285.3L3754.3 0L3389.6 0Z" fill="#0f0e0e" stroke="#0f0e0e"></path><path d="M3743.3 2250L4000 1994.8L3722.3 1968.8Z" fill="#141414" stroke="#141414"></path><path d="M4000 587.5L4000 305.3L3704.3 534.5Z" fill="#131212" stroke="#131212"></path><path d="M3743.3 2250L4000 2250L4000 1994.8Z" fill="#0f0e0e" stroke="#0f0e0e"></path><path d="M4000 305.3L4000 0L3754.3 0Z" fill="#131212" stroke="#131212"></path></g></svg>