<?xml version="1.0" ?><!-- Uploaded to: SVG Repo, www.svgrepo.com, Generator: SVG Repo Mixer Tools -->
<svg width="800px" height="800px" viewBox="0 0 24 24" fill="none" xmlns="http://www.w3.org/2000/svg"><path d="M15 6V5C15 3.89543 14.1046 3 13 3H11C9.89543 3 9 3.89543 9 5V6M15 6H18C19.1046 6 20 6.89543 20 8V18C20 19.1046 19.1046 20 18 20H17M15 6H9M9 6H6C4.89543 6 4 6.89543 4 8V18C4 19.1046 4.89543 20 6 20H7M9 10V16M15 16V10M7 20V21M7 20H17M17 20V21" stroke="#000000" stroke-linecap="round" stroke-linejoin="round" stroke-width="2"/></svg>